<?xml version="1.0" encoding="UTF-8"?>
<svg width="20px" height="10px" viewBox="0 0 20 10" version="1.1" xmlns="http://www.w3.org/2000/svg" xmlns:xlink="http://www.w3.org/1999/xlink">
    <title>arrow-back</title>
    <g id="Page-1" stroke="none" stroke-width="1" fill="none" fill-rule="evenodd">
        <g id="15_Forgot-password" transform="translate(-494.000000, -608.000000)" fill="#FFFFFF" fill-rule="nonzero">
            <g id="Group-3" transform="translate(281.000000, 291.000000)">
                <g id="Group-6" transform="translate(213.000000, 312.000000)">
                    <path d="M0.731213875,11.6598372 L3.95656865,14.7650828 C4.11305803,14.9154312 4.32607801,15 4.5483004,15 C4.77052279,15 4.98354277,14.9154312 5.14003215,14.7650828 L5.14003215,14.7650828 C5.29781005,14.6159622 5.38655787,14.4129729 5.38655787,14.2012146 C5.38655787,13.9894563 5.29781005,13.7864671 5.14003215,13.6373465 L2.17303913,10.7941805 L19.166575,10.7941805 C19.6268629,10.7941805 20,10.4386138 20,10 L20,10 C20,9.56138624 19.6268629,9.20581954 19.166575,9.20581954 L2.12303363,9.20581954 L5.14003215,6.33088628 C5.44694439,6.02409573 5.44694439,5.54170781 5.14003215,5.23491725 L5.14003215,5.23491725 C4.98354277,5.08456884 4.77052279,5 4.5483004,5 C4.32607801,5 4.11305803,5.08456884 3.95656865,5.23491725 L0.731213875,8.29251201 C-0.243737958,9.22271191 -0.243737958,10.7296373 0.731213875,11.6598372 Z" id="arrow-back"></path>
                </g>
            </g>
        </g>
    </g>
</svg>