<?xml version="1.0" encoding="UTF-8"?>
<svg width="155px" height="57px" viewBox="0 0 155 57" version="1.1" xmlns="http://www.w3.org/2000/svg" xmlns:xlink="http://www.w3.org/1999/xlink">
    <title>ic_logo</title>
    <g id="Page-1" stroke="none" stroke-width="1" fill="none" fill-rule="evenodd">
        <g id="04_wizard-step-2" transform="translate(-293.000000, -32.000000)" fill-rule="nonzero">
            <g id="ic_logo" transform="translate(293.000000, 32.000000)">
                <g id="Group" transform="translate(117.278506, 10.713947)" fill="#FFC628">
                    <path d="M0,16.1266945 L0,30.8196318 L8.90861248,30.8196318 L8.90861248,29.8555283 C4.79199733,27.001782 1.80101913,22.3869399 0,16.1266945 Z" id="Path"></path>
                    <path d="M35.0619831,15.8053266 C35.0893592,11.6955418 33.529613,7.73350738 30.7073762,4.74384577 C27.7931804,1.68489324 23.7417695,-0.0321668967 19.5153287,0.000456537056 C15.7524852,0.000456537056 11.8545652,1.62015042 10.7932504,3.08558774 C10.8023573,6.41766683 11.363099,9.72528344 12.4527608,12.874452 C13.7424252,10.9968773 15.7040556,9.68550936 17.9330048,9.21085866 C18.4537056,9.10432306 18.9838249,9.0504898 19.5153287,9.05017475 C23.2074179,9.05017475 25.9925654,11.9489126 25.9925654,15.7924719 C26.0462976,19.4804848 23.1030577,22.5163749 19.4124133,22.5797606 C18.9327163,22.5776486 18.4544043,22.5281312 17.9844625,22.4319314 C17.0379958,22.2259298 16.1472042,21.8181412 15.3729847,21.236443 C12.8708546,19.5139114 10.9926489,16.3387972 9.78982541,11.8075108 C8.93261147,8.40007109 8.48775195,4.90214368 8.46478991,1.38876558 L0.00643221118,1.38876558 L0.00643221118,1.88367205 C0.578899006,19.957399 8.20106925,31.6423338 19.4124133,31.6423338 C23.6111099,31.6432409 27.6290424,29.9351678 30.5401387,26.911799 C33.442975,23.9430031 35.0662576,19.955926 35.0619831,15.8053266 L35.0619831,15.8053266 Z" id="Path"></path>
                </g>
                <ellipse id="Oval" fill="#FFC628" cx="121.330799" cy="4.60841474" rx="4.61189541" ry="4.60841474"></ellipse>
                <path d="M62.6304402,16.4540331 L62.6304402,11.2221648 L54.9117868,11.2221648 L54.9117868,26.3521624 C54.9117868,29.0130881 54.7574137,30.7677564 54.461532,31.5647487 C54.1233118,32.5463891 53.4812807,33.3950314 52.6283519,33.9878621 C51.7250589,34.5506159 50.675685,34.8345602 49.6116448,34.8041364 C48.555184,34.8406462 47.5131035,34.5511485 46.6270988,33.9750074 C45.8079153,33.4013496 45.1928613,32.5818964 44.8711052,31.6354496 C44.4980369,30.6199272 44.3115028,28.7624212 44.3115028,26.1143502 L44.3115028,11.2221648 L36.4963662,11.2221648 L36.4963662,24.2696988 C36.4963662,28.8331221 36.7858157,32.0339457 37.3647147,33.7757594 C38.0864077,36.1738563 39.5840335,38.264881 41.6228385,39.7210643 C43.6361206,41.1350828 46.3119205,41.8549467 49.5280261,41.8549467 C52.1288527,41.9554597 54.7055277,41.3229135 56.9636622,40.0295774 C58.9408964,38.7741276 60.4888993,36.9470693 61.4018879,34.7912817 C61.5153843,34.5226169 61.6141577,34.2479765 61.6977696,33.9685801 C60.1504953,31.5223544 59.3626727,28.6731257 59.4336313,25.7801277 C59.4400635,21.8530127 60.7136413,18.4015222 62.6304402,16.4540331 Z" id="Path" fill="#FFFFFF"></path>
                <g id="Group" transform="translate(14.150865, 10.514495)" fill="#FFFFFF">
                    <path d="M21.0333305,21.0116898 C20.8501938,21.2608499 20.6526005,21.4990705 20.4415671,21.7251264 C18.9921029,23.2749093 16.9483996,24.131073 14.8262468,24.077539 C12.7282583,24.1100596 10.7176927,23.2390037 9.30740957,21.6865623 C8.50286993,20.8227753 7.90083627,19.7908692 7.54498371,18.6657046 C7.00542328,21.5881968 4.83353822,23.9409634 1.96182441,24.7138473 C2.43594066,25.4260966 2.96957742,26.0969394 3.55701278,26.7191826 C6.08022053,29.5639825 9.70347802,31.1905264 13.5076435,31.1861955 C15.1417463,31.1994579 16.7620929,30.8869954 18.273912,30.2670835 C19.7717367,29.6057753 21.1463227,28.6951473 22.3390694,27.574021 L22.3390694,41.1485983 L30.0577228,41.1485983 L30.0577228,32.079598 C24.8586235,30.9058281 21.1332573,26.3368765 21.0333305,21.0116898 L21.0333305,21.0116898 Z" id="Path"></path>
                    <path d="M7.07543229,15.3556159 C7.03400604,13.1998565 7.81866319,11.1097831 9.26881631,9.51314872 C10.6865717,7.97187393 12.69956,7.11483355 14.7940857,7.16073618 C16.9169271,7.10215746 18.9657245,7.94253421 20.4351349,9.47458458 C21.8522395,10.9954268 22.6424895,12.9948113 22.6478156,15.0728123 C24.3008474,12.3620542 26.9760859,10.4301088 30.0705873,9.71239678 L30.0705873,0.752661565 L22.3519338,0.752661565 L22.3519338,3.72852771 C21.1847036,2.59181979 19.8231631,1.67320148 18.3318019,1.01618319 C16.7425995,0.33649522 15.0304368,-0.00917938198 13.3018127,0.000660833517 C9.52581962,-0.0373637957 5.91989361,1.56718823 3.42193635,4.3969728 C1.80184333,6.13925993 0.627781211,8.24744844 0,10.5415258 C3.04243589,11.1199879 5.90476986,12.9453572 7.07543229,15.3556159 Z" id="Path"></path>
                </g>
                <path d="M14.3373987,22.8171162 L11.513658,21.4673713 C10.7060005,21.1560457 9.95104495,20.7224907 9.27524852,20.1819 C9.01189614,19.9297278 8.8612074,19.5822471 8.85715479,19.2177965 C8.85838191,18.747335 9.1012741,18.3104591 9.50037591,18.0608723 C10.0770989,17.7014645 10.7516303,17.5307121 11.4300393,17.5723932 C11.9950603,17.5851591 12.5530369,17.7005905 13.0766853,17.9130431 C13.4801623,16.5860683 14.1670684,15.3624123 15.0899674,14.326578 C15.7890325,13.4634414 16.592793,12.6905137 17.48275,12.0255844 L17.0839529,11.8199089 C15.3000476,10.9703686 13.3482861,10.5311144 11.3721494,10.5344376 C8.70906666,10.4297666 6.1022303,11.3186753 4.05872525,13.028252 C2.2392286,14.520472 1.1861795,16.7500243 1.18995907,19.1021041 C1.18995907,22.7528427 3.76284354,25.8315465 8.74137499,28.2418053 L11.3142595,29.4758577 C13.4690502,30.5170895 14.5625261,31.5776034 14.5625261,32.6252625 C14.5363669,33.2113513 14.2269501,33.7482277 13.7327709,34.0649904 C13.0460148,34.5291762 12.2256398,34.7550042 11.3978782,34.7077261 C10.2953397,34.6533084 9.22064026,34.3430251 8.25895915,33.8014688 C7.08570878,33.2146271 6.03043601,32.4172338 5.14576894,31.4490563 L4.99782808,31.2947997 L0,36.4881039 L0.0964831677,36.616651 C2.70678532,39.9424605 6.74564449,41.8279074 10.9733523,41.6942628 C14.375992,41.6942628 17.1289784,40.8008602 19.1615571,39.0333371 C22.6476221,36.0366228 23.2440149,30.8661903 20.5316181,27.155582 C19.4059811,25.7094267 17.3219447,24.2247073 14.3373987,22.8171162 Z" id="Path" fill="#FFFFFF"></path>
                <path d="M83.6573386,30.8834489 C83.6573386,30.8448847 83.6573386,30.8127479 83.6573386,30.7806112 C83.35572,31.3344018 82.9718622,31.8393247 82.5188372,32.2781853 C81.0718413,33.8276561 79.0301932,34.6839396 76.909949,34.6305978 C74.8138564,34.6629383 72.8053407,33.7917552 71.3975441,32.2396211 C69.8766841,30.5721876 69.0707268,28.3753617 69.1527024,26.1207776 C69.0675686,23.8919634 69.8595642,21.7185033 71.3589508,20.0662076 C72.7772074,18.5218261 74.793578,17.6643439 76.8906524,17.713795 C79.0129031,17.6584356 81.060448,18.4982986 82.5317016,20.0276434 C83.8831188,21.4759755 84.6644831,23.3639889 84.7315178,25.3430674 C86.3901991,22.6014026 89.0606491,20.6208517 92.167154,19.8283954 L92.167154,11.3121478 L84.4485005,11.3121478 L84.4485005,14.2815865 C83.2741167,13.1416727 81.9035424,12.2228399 80.4026397,11.569242 C78.8159221,10.8888305 77.1057036,10.5431063 75.3790828,10.5537197 C71.6037992,10.5191105 67.9992295,12.123059 65.4992064,14.9500316 C62.8041099,17.8680516 61.434049,21.6473373 61.434049,26.1979058 C61.3155721,30.2959207 62.8150245,34.2760517 65.608554,37.2786688 C68.1354254,40.1213969 71.7605734,41.7453982 75.5656169,41.7392543 C77.2018502,41.7530278 78.8243999,41.4405622 80.3383176,40.8201423 C81.836865,40.1636786 83.2101224,39.2524891 84.3970429,38.1270798 L84.3970429,41.7392543 L92.1156963,41.7392543 L92.1156963,41.5078695 C87.7739537,39.6632181 84.339153,35.3504618 83.6573386,30.8834489 Z" id="Path" fill="#FFFFFF"></path>
                <path d="M107.713808,14.2815865 C106.547107,13.1442293 105.185443,12.2255273 103.693676,11.569242 C102.104474,10.8895541 100.392311,10.5438795 98.6636872,10.5537197 C94.8822222,10.5160595 91.2705105,12.1200532 88.7645142,14.9500316 C86.0694178,17.8680516 84.705789,21.6473373 84.705789,26.1979058 C84.5970309,30.3014339 86.1107146,34.282535 88.9188873,37.2786688 C91.4482494,40.12171 95.0754506,41.7455821 98.8823824,41.7392543 C100.516533,41.7530343 102.136981,41.4405523 103.648651,40.8201423 C105.149917,40.1651334 106.525529,39.2538259 107.713808,38.1270798 L107.713808,41.8549467 L115.432462,41.8549467 L115.432462,0 L107.713808,0 L107.713808,14.2815865 Z M105.784145,20.0276434 C107.32217,21.6659826 108.141856,23.8501619 108.061148,26.0950681 C108.158113,28.3689437 107.35645,30.5897439 105.82917,32.2781853 C104.381692,33.8269633 102.34037,34.6831098 100.220282,34.6305978 C98.1217915,34.6656401 96.1102296,33.7941526 94.7014452,32.2396211 C93.1788494,30.572831 92.3706335,28.3761428 92.4501712,26.1207776 C92.3691609,23.8926114 93.1606081,21.7206564 94.6564197,20.0662076 C96.076162,18.5239276 98.0915324,17.6668708 100.188121,17.713795 C102.301497,17.6657034 104.338288,18.504983 105.803442,20.0276434 L105.784145,20.0276434 Z" id="Shape" fill="#FFFFFF"></path>
                <text id="Teams-by-Ibtikar" fill="#FFFFFF" font-family="DINNextLTArabic-Medium, DIN Next LT Arabic" font-size="9.41164965" font-weight="400">
                    <tspan x="85.1753404" y="53.0413401">Teams by Ibtikar</tspan>
                </text>
            </g>
        </g>
    </g>
</svg>